<?xml version="1.0" standalone="no"?>
<!DOCTYPE svg PUBLIC "-//W3C//DTD SVG 20010904//EN"
 "http://www.w3.org/TR/2001/REC-SVG-20010904/DTD/svg10.dtd">
<svg version="1.0" xmlns="http://www.w3.org/2000/svg"
 width="1280.000000pt" height="1280.000000pt" viewBox="0 0 1280.000000 1280.000000"
 preserveAspectRatio="xMidYMid meet">
<metadata>
Created by potrace 1.15, written by Peter Selinger 2001-2017
</metadata>
<g transform="translate(0.000000,1280.000000) scale(0.100000,-0.100000)"
fill="#000000" stroke="none">
<path d="M2466 12074 c-122 -19 -334 -71 -436 -106 -116 -41 -218 -94 -341
-177 -223 -150 -336 -257 -478 -456 -100 -139 -153 -230 -201 -350 -42 -102
-110 -358 -132 -495 -11 -70 -13 -794 -13 -4085 0 -3824 1 -4004 18 -4090 34
-169 88 -366 123 -455 94 -233 305 -522 498 -679 164 -134 328 -234 482 -295
105 -41 380 -110 504 -126 60 -8 1256 -10 4100 -8 l4015 3 155 38 c85 20 193
49 238 63 215 68 495 246 677 429 157 158 308 381 385 570 42 102 110 358 132
495 19 124 20 8014 0 8137 -22 138 -87 383 -130 491 -115 285 -343 573 -605
760 -220 158 -368 226 -622 288 -290 69 72 64 -4310 63 -3323 -1 -3984 -3
-4059 -15z m7369 -1563 c88 -11 223 -60 312 -113 218 -131 382 -370 419 -613
20 -133 21 -6545 0 -6680 -24 -161 -107 -324 -230 -453 -98 -103 -195 -168
-336 -225 l-105 -42 -3353 -3 c-2954 -2 -3361 0 -3425 13 -44 9 -120 38 -197
76 -117 58 -131 68 -225 163 -106 107 -156 186 -220 346 l-30 75 0 3390 0
3390 24 65 c30 82 85 192 124 249 49 72 179 194 255 240 95 57 233 111 312
120 88 11 6586 12 6675 2z"/>
<path d="M6175 9989 c-571 -69 -1001 -204 -1431 -451 -980 -561 -1630 -1538
-1759 -2643 -155 -1330 452 -2623 1575 -3358 469 -306 973 -485 1580 -559 162
-20 594 -17 765 6 179 23 334 50 460 82 868 218 1599 734 2102 1484 410 611
616 1375 574 2129 -11 196 -15 229 -58 461 -197 1074 -912 2009 -1907 2496
-387 190 -724 288 -1186 345 -166 20 -575 25 -715 8z m-1844 -1584 c118 -14
246 -29 286 -35 194 -27 317 -122 375 -288 20 -58 23 -86 22 -212 0 -98 -6
-169 -17 -219 -57 -252 -215 -382 -466 -381 -67 0 -568 54 -576 62 -2 2 11
145 30 318 18 173 43 410 55 525 26 262 25 255 54 255 13 0 119 -11 237 -25z
m1729 -176 c219 -55 356 -193 391 -394 26 -150 -6 -362 -74 -490 -63 -118
-190 -211 -324 -236 -76 -15 -281 -6 -358 15 -191 52 -312 162 -371 336 -26
75 -26 296 0 390 52 191 158 316 316 373 111 40 275 42 420 6z m930 -114 c69
-8 126 -18 128 -22 2 -5 88 -165 191 -358 199 -371 203 -377 264 -361 15 3 31
14 36 24 5 9 23 154 41 322 18 168 36 308 39 312 3 4 55 2 114 -5 l108 -11 -6
-45 c-3 -25 -30 -272 -59 -549 -30 -277 -56 -505 -58 -507 -6 -6 -249 23 -256
30 -4 3 -88 160 -188 348 -107 200 -193 350 -207 361 -31 23 -70 16 -91 -17
-9 -14 -26 -129 -47 -322 -18 -165 -35 -303 -38 -307 -3 -3 -53 -1 -111 6
l-105 11 2 40 c5 79 112 1065 116 1065 1 0 58 -7 127 -15z m1744 -189 c274
-30 500 -57 503 -59 4 -5 -13 -157 -19 -161 -1 -2 -75 5 -163 14 -160 18 -189
16 -214 -14 -15 -17 -16 -26 -71 -529 -21 -198 -41 -361 -43 -363 -4 -4 -181
13 -222 21 -21 4 -21 8 27 440 50 459 50 477 6 494 -20 7 -284 41 -323 41 -10
0 -15 10 -15 33 0 64 13 137 24 137 6 0 235 -25 510 -54z m-4747 -1706 c300
-33 358 -48 424 -107 62 -56 83 -111 82 -217 -2 -164 -64 -268 -189 -316 -56
-21 -68 -22 -209 -15 -82 4 -179 8 -214 9 -92 1 -95 -3 -120 -243 -12 -107
-22 -196 -24 -197 -4 -4 -237 23 -241 27 -2 2 23 245 55 539 32 294 59 541 59
548 0 10 13 12 53 7 28 -3 175 -19 324 -35z m1371 -154 c8 -8 291 -1105 292
-1129 0 -15 -6 -17 -32 -12 -18 3 -73 10 -122 15 -49 5 -90 11 -92 13 -2 2
-11 42 -20 90 -10 55 -23 92 -35 103 -19 17 -110 32 -348 55 -174 17 -176 16
-221 -91 -20 -47 -40 -85 -45 -85 -40 1 -204 17 -218 21 -15 5 -9 22 47 127
35 67 140 275 234 462 94 187 187 369 206 405 l35 66 156 -17 c86 -9 159 -20
163 -23z m943 -96 c12 0 78 -114 209 -359 157 -293 197 -361 219 -371 43 -17
78 1 90 47 8 28 71 575 71 614 0 3 48 -1 108 -7 59 -7 109 -13 112 -14 3 0 -2
-72 -11 -159 -10 -87 -36 -334 -59 -547 -23 -214 -44 -391 -46 -393 -2 -2 -61
2 -130 10 l-126 14 -190 356 c-139 262 -196 360 -214 368 -27 12 -62 2 -83
-22 -7 -10 -25 -135 -46 -322 -18 -169 -36 -309 -39 -312 -6 -6 -207 14 -214
22 -4 4 106 1066 113 1091 2 7 35 7 111 -2 60 -7 116 -13 125 -14z m1373 -150
c49 -5 90 -11 92 -13 5 -5 -112 -1087 -119 -1093 -5 -6 -207 12 -233 21 -7 2
-7 36 2 117 7 62 34 309 60 550 l47 436 31 -4 c17 -2 71 -8 120 -14z m1144
-111 c92 -23 182 -71 226 -119 40 -44 82 -114 91 -151 7 -29 7 -29 -141 -45
-60 -6 -61 -6 -68 21 -4 15 -31 51 -60 80 -42 42 -66 57 -111 71 -83 24 -176
15 -245 -22 -99 -54 -146 -134 -175 -301 -56 -324 49 -505 295 -506 46 0 89 6
111 15 49 21 112 80 143 133 l26 43 92 -40 c51 -23 94 -42 96 -43 2 -2 -6 -22
-18 -44 -47 -94 -149 -176 -256 -207 -47 -13 -83 -16 -184 -11 -271 12 -416
91 -508 276 -54 107 -68 208 -52 358 32 303 180 479 430 514 77 10 222 0 308
-22z"/>
<path d="M4318 8233 c-24 -27 -25 -34 -63 -395 -36 -340 -36 -358 -3 -386 23
-18 216 -34 278 -22 149 28 223 157 237 416 13 245 -54 346 -260 388 -103 22
-170 21 -189 -1z"/>
<path d="M5783 8081 c-68 -23 -132 -77 -166 -138 -60 -110 -86 -337 -53 -460
39 -146 152 -228 316 -227 130 0 222 59 276 178 35 78 57 214 52 331 -3 85 -8
109 -31 157 -69 142 -243 212 -394 159z"/>
<path d="M3863 6089 c-18 -20 -24 -48 -38 -168 -9 -79 -14 -154 -11 -167 12
-47 49 -59 180 -59 146 0 184 15 230 89 56 89 31 216 -52 271 -43 28 -98 42
-208 51 -74 6 -80 5 -101 -17z"/>
<path d="M5122 5883 c-26 -24 -202 -440 -202 -479 0 -54 23 -64 189 -82 166
-17 196 -12 207 32 3 13 -15 133 -40 267 -48 260 -56 279 -111 279 -13 0 -32
-8 -43 -17z"/>
</g>
</svg>
